<svg width="32" height="42" viewBox="0 0 32 42" fill="none" xmlns="http://www.w3.org/2000/svg">
<g clip-path="url(#clip0_20_106)">
<path d="M1.21545 22.2172C7.06135 34.3577 16.0019 37.5983 16.0019 37.5983V22.2172H30.7883" fill="#333333"/>
<path d="M30.7883 22.2172C24.9425 34.3577 16.0019 37.5983 16.0019 37.5983V22.2172H1.21545" fill="#333333"/>
<path opacity="0.2" d="M16.0019 41.9962C22.6637 41.9962 28.0641 41.2708 28.0641 40.3759C28.0641 39.481 22.6637 38.7556 16.0019 38.7556C9.34014 38.7556 3.9397 39.481 3.9397 40.3759C3.9397 41.2708 9.34014 41.9962 16.0019 41.9962Z" fill="#1D1D1B"/>
<path d="M16.0019 4.65348e-07C12.8369 -0.000762577 9.74271 0.936876 7.1107 2.69433C4.47869 4.45179 2.42708 6.95012 1.21534 9.87337C0.00360386 12.7966 -0.313838 16.0135 0.303164 19.1171C0.920166 22.2207 2.4439 25.0717 4.68165 27.3095C6.91941 29.5473 9.77067 31.0714 12.8749 31.689C15.979 32.3066 19.1967 31.99 22.1209 30.7793C25.0451 29.5685 27.5445 27.518 29.3029 24.887C31.0614 22.256 32 19.1627 32 15.9983C32 11.756 30.3146 7.68733 27.3145 4.68717C24.3144 1.68701 20.2453 0.00102346 16.0019 4.65348e-07ZM15.7511 22.2171C14.54 22.2171 13.356 21.8581 12.349 21.1853C11.3419 20.5126 10.557 19.5564 10.0936 18.4377C9.63007 17.319 9.5088 16.088 9.74508 14.9004C9.98137 13.7128 10.5646 12.6219 11.421 11.7656C12.2774 10.9094 13.3686 10.3263 14.5565 10.0901C15.7443 9.85385 16.9756 9.97509 18.0946 10.4385C19.2135 10.9019 20.1699 11.6866 20.8428 12.6934C21.5157 13.7002 21.8749 14.8839 21.8749 16.0948C21.8738 17.7182 21.2283 19.2749 20.0801 20.4228C18.9319 21.5708 17.3749 22.2161 15.7511 22.2171Z" fill="#333333"/>
<g clip-path="url(#clip1_20_106)">
<path d="M1.21545 22.2172C7.06135 34.3577 16.0019 37.5983 16.0019 37.5983V22.2172H30.7883" fill="white"/>
<path d="M30.7883 22.2172C24.9425 34.3577 16.0019 37.5983 16.0019 37.5983V22.2172H1.21545" fill="white"/>
<path opacity="0.2" d="M16.0019 41.9962C22.6637 41.9962 28.0641 41.2708 28.0641 40.3759C28.0641 39.481 22.6637 38.7556 16.0019 38.7556C9.34014 38.7556 3.9397 39.481 3.9397 40.3759C3.9397 41.2708 9.34014 41.9962 16.0019 41.9962Z" fill="white"/>
<path d="M16.0019 4.65348e-07C12.8369 -0.000762577 9.74271 0.936876 7.1107 2.69433C4.47869 4.45179 2.42708 6.95012 1.21534 9.87337C0.00360386 12.7966 -0.313838 16.0135 0.303164 19.1171C0.920166 22.2207 2.4439 25.0717 4.68165 27.3095C6.91941 29.5473 9.77067 31.0714 12.8749 31.689C15.979 32.3066 19.1967 31.99 22.1209 30.7793C25.0451 29.5685 27.5445 27.518 29.3029 24.887C31.0614 22.256 32 19.1627 32 15.9983C32 11.756 30.3146 7.68733 27.3145 4.68717C24.3144 1.68701 20.2453 0.00102346 16.0019 4.65348e-07ZM15.7511 22.2171C14.54 22.2171 13.356 21.8581 12.349 21.1853C11.3419 20.5126 10.557 19.5564 10.0936 18.4377C9.63007 17.319 9.5088 16.088 9.74508 14.9004C9.98137 13.7128 10.5646 12.6219 11.421 11.7656C12.2774 10.9094 13.3686 10.3263 14.5565 10.0901C15.7443 9.85385 16.9756 9.97509 18.0946 10.4385C19.2135 10.9019 20.1699 11.6866 20.8428 12.6934C21.5157 13.7002 21.8749 14.8839 21.8749 16.0948C21.8738 17.7182 21.2283 19.2749 20.0801 20.4228C18.9319 21.5708 17.3749 22.2161 15.7511 22.2171Z" fill="white"/>
</g>
</g>
<defs>
<clipPath id="clip0_20_106">
<rect width="32" height="42" fill="white"/>
</clipPath>
<clipPath id="clip1_20_106">
<rect width="32" height="42" fill="white"/>
</clipPath>
</defs>
</svg>
